# xmcd
#
# Track frame offsets: 
#        150
#        17765
#        31132
#        56138
#        81931
#        107299
#        112561
#        135067
#        152676
#        178123
#        190649
#        205755
#        218659
#        277170
#        292273
#        313368
#
# Disc length: 4430 seconds
#
# Revision: 0
# Processed by: cddbd v1.5.2PL0 Copyright (c) Steve Scherf et al.
# Submitted via: ExactAudioCopy v0.99pb5
#
DISCID=d9114c10
DTITLE=Greensky Bluegrass - All Access Vol. 1 Live 11-27-2009 - Rivier
DTITLE=a Theater, Three Rivers, MI Disc 1
DYEAR=2010
DGENRE=Bluegrass
TTITLE0=Sweetwater Sea
TTITLE1=Pig In A Pen
TTITLE2=Reverend
TTITLE3=Dry County >
TTITLE4=Time > Breath Reprise >
TTITLE5=Dry County
TTITLE6=Nine Days
TTITLE7=White Freight Liner Blues
TTITLE8=No Idea
TTITLE9=When I Paint My Masterpiece
TTITLE10=Against the Days
TTITLE11=Just To Lie >
TTITLE12=Train Junkie
TTITLE13=Into The Rafters
TTITLE14=Indian Trail >
TTITLE15=A Day In The Life
EXTD=
EXTT0=
EXTT1=
EXTT2=
EXTT3=
EXTT4=
EXTT5=
EXTT6=
EXTT7=
EXTT8=
EXTT9=
EXTT10=
EXTT11=
EXTT12=
EXTT13=
EXTT14=
EXTT15=
PLAYORDER=
